<?xml version="1.0" standalone="no"?>
<!DOCTYPE svg PUBLIC "-//W3C//DTD SVG 20010904//EN"
 "http://www.w3.org/TR/2001/REC-SVG-20010904/DTD/svg10.dtd">
<svg version="1.0" xmlns="http://www.w3.org/2000/svg"
 width="800.000000pt" height="800.000000pt" viewBox="0 0 800.000000 800.000000"
 preserveAspectRatio="xMidYMid meet">
<metadata>
Created by potrace 1.14, written by Peter Selinger 2001-2017
</metadata>
<g transform="translate(0.000000,800.000000) scale(0.100000,-0.100000)"
fill="#000000" stroke="none">
<path d="M1485 7991 c-2 -4 -18 -6 -34 -5 -17 1 -31 -2 -31 -6 0 -4 -9 -6 -20
-3 -11 3 -20 0 -20 -6 0 -5 -7 -8 -15 -5 -14 6 -140 -31 -160 -46 -5 -5 -14
-9 -20 -9 -22 -2 -45 -13 -41 -19 2 -4 -6 -8 -17 -8 -26 -2 -181 -92 -220
-128 -15 -14 -33 -29 -41 -33 -35 -19 -136 -125 -130 -135 4 -6 3 -8 -3 -5
-15 9 -123 -117 -123 -143 0 -5 -4 -10 -8 -10 -14 0 -74 -109 -66 -121 5 -8 3
-9 -5 -5 -8 5 -14 0 -18 -13 -3 -12 -9 -21 -14 -21 -5 0 -9 -8 -9 -17 0 -10
-7 -27 -15 -37 -8 -11 -15 -28 -15 -37 0 -10 -3 -19 -7 -21 -14 -6 -56 -131
-87 -256 -13 -50 -15 -59 -17 -64 -4 -16 -12 -92 -13 -125 -1 -24 -4 -43 -7
-43 -4 0 -7 -124 -8 -275 0 -215 2 -274 12 -269 9 6 9 4 0 -7 -10 -12 -12
-360 -9 -1635 2 -890 5 -1627 6 -1636 1 -10 4 -18 8 -18 4 0 8 -17 9 -38 2
-48 7 -80 16 -88 4 -4 7 -18 7 -31 0 -12 5 -23 11 -23 5 0 8 -4 5 -9 -8 -12
51 -183 67 -193 6 -4 9 -8 4 -8 -4 0 -1 -13 8 -30 8 -16 16 -33 17 -37 1 -5
21 -39 45 -78 24 -38 49 -79 56 -90 7 -10 17 -24 22 -30 6 -7 19 -24 30 -39
11 -16 38 -47 60 -71 22 -24 47 -52 56 -62 32 -36 119 -113 128 -113 5 0 11
-7 15 -15 3 -8 12 -15 20 -15 8 0 16 -3 18 -7 5 -13 76 -63 87 -63 6 0 11 -5
11 -12 0 -6 3 -8 7 -5 3 4 13 1 22 -7 9 -8 45 -28 81 -46 36 -17 76 -37 90
-44 27 -15 81 -30 93 -28 4 1 7 -3 7 -9 0 -5 4 -8 9 -4 5 3 13 1 16 -5 4 -6
14 -10 23 -9 10 1 26 -1 37 -5 50 -19 72 -25 103 -30 19 -2 36 -7 39 -10 3 -3
15 -1 26 5 14 8 18 8 13 0 -5 -7 3 -11 21 -12 52 -3 108 -7 108 -9 0 -1 17 -2
38 -3 20 -1 37 3 37 8 0 7 3 7 8 0 6 -9 58 -12 87 -5 6 1 14 2 18 1 47 -8 97
-6 97 3 0 7 3 7 8 1 9 -13 102 -14 102 -1 0 6 5 5 12 -2 7 -7 17 -8 30 -1 13
7 18 6 18 -2 0 -8 4 -8 15 1 8 7 15 8 15 4 0 -5 22 -9 50 -9 27 0 50 4 50 9 0
5 6 5 13 0 15 -11 38 -11 55 -1 6 5 12 5 12 0 0 -4 23 -8 50 -8 28 0 50 4 50
10 0 7 3 7 8 0 9 -13 102 -14 102 -1 0 6 5 5 12 -2 7 -7 17 -8 30 -1 13 7 18
6 18 -2 0 -8 4 -8 15 1 8 7 15 8 15 4 0 -5 22 -9 50 -9 27 0 50 4 50 9 0 5 6
5 13 0 15 -11 38 -11 54 -1 7 5 13 5 13 0 0 -4 23 -8 50 -8 28 0 50 4 50 10 0
7 3 7 8 0 9 -13 102 -14 102 -1 0 6 5 5 12 -2 7 -7 17 -8 30 -1 13 7 18 6 18
-2 0 -8 4 -8 15 1 8 7 15 8 15 4 0 -5 22 -9 50 -9 27 0 50 4 50 8 0 5 6 5 13
0 16 -10 39 -10 55 1 6 5 12 5 12 0 0 -5 23 -9 50 -9 28 0 50 4 50 10 0 7 3 7
8 0 9 -13 102 -14 102 -1 0 6 5 5 12 -2 7 -7 17 -8 30 -1 13 7 18 6 18 -2 0
-8 4 -8 15 1 8 7 15 8 15 4 0 -5 22 -9 50 -9 27 0 50 4 50 9 0 5 6 5 13 0 15
-11 38 -11 54 -1 7 5 13 4 13 -1 0 -10 42 -8 61 4 7 4 10 3 6 -2 -6 -11 56
-10 74 1 7 5 10 4 6 -1 -6 -11 56 -10 74 1 7 5 10 4 6 -1 -6 -11 56 -10 74 1
7 5 10 4 6 -1 -6 -11 56 -10 74 1 7 5 10 4 6 -1 -6 -11 56 -10 74 1 7 5 10 4
6 -1 -4 -8 20 -8 78 -2 6 0 29 -2 53 -5 39 -6 56 -19 173 -137 72 -72 135
-127 141 -124 6 4 8 2 5 -4 -7 -10 219 -242 235 -242 4 0 8 -4 8 -9 0 -5 26
-34 58 -65 31 -30 227 -224 435 -430 208 -207 383 -376 389 -376 6 0 9 -3 5
-6 -7 -7 29 -44 43 -44 6 0 10 -6 10 -13 0 -11 40 -29 92 -41 9 -3 26 -9 37
-15 11 -6 24 -11 28 -10 4 1 10 1 13 -1 3 -1 16 -3 30 -6 14 -2 32 -7 40 -10
8 -4 29 -7 45 -8 17 -1 36 -5 43 -10 7 -4 12 -2 12 5 0 8 4 8 13 1 12 -10 236
-8 292 2 17 4 41 8 55 10 14 3 27 5 30 6 3 2 8 2 13 1 4 0 7 3 7 8 0 5 8 8 18
6 9 -1 25 2 35 7 10 5 27 11 37 13 43 8 220 95 220 107 0 5 4 7 9 4 5 -3 14 1
21 9 7 8 17 15 22 15 9 0 23 10 59 42 10 10 22 18 25 18 4 0 17 11 30 25 13
14 25 25 28 25 3 0 30 25 61 55 30 30 52 55 49 55 -2 0 8 13 23 28 42 42 73
81 73 91 0 5 7 11 15 15 8 3 15 11 15 17 0 7 6 20 14 28 7 9 24 36 37 61 13
25 32 56 41 69 14 18 15 27 7 38 -10 11 -8 12 5 7 9 -4 16 -3 15 2 -2 5 6 27
16 49 10 22 18 45 19 50 1 6 6 19 12 30 6 11 15 34 19 50 5 17 9 32 10 35 40
132 56 210 59 293 1 15 4 27 8 27 4 0 8 833 8 1851 0 1475 -2 1855 -12 1867
-10 13 -10 14 0 8 9 -6 11 4 8 41 -3 26 -7 59 -10 72 -3 12 -8 42 -10 65 -6
46 -44 194 -54 211 -3 5 -7 15 -8 20 -7 30 -43 120 -55 134 -8 9 -15 24 -17
34 -7 38 -119 212 -190 295 -78 90 -240 241 -259 242 -6 0 -13 3 -15 8 -3 8
-85 65 -108 75 -8 4 -30 16 -48 27 -18 11 -38 17 -44 14 -7 -4 -8 -2 -4 4 6
11 0 14 -20 11 -4 0 -10 3 -13 9 -7 10 -163 72 -199 78 -13 3 -42 11 -66 19
-24 8 -58 17 -77 19 -19 3 -55 9 -80 14 -25 5 -66 8 -92 8 -26 -1 -47 2 -47 6
0 4 -14 3 -30 -2 -21 -6 -30 -5 -30 3 0 7 -4 6 -10 -3 -5 -8 -10 -10 -10 -4 0
13 -92 13 -102 -1 -5 -7 -8 -6 -8 0 0 6 -9 11 -20 11 -11 0 -20 -5 -20 -10 0
-6 -5 -5 -12 2 -7 7 -17 8 -30 1 -13 -7 -18 -6 -18 2 0 8 -4 8 -15 -1 -8 -7
-15 -8 -15 -4 0 5 -22 9 -50 9 -27 0 -50 -4 -50 -9 0 -5 -6 -5 -12 0 -16 11
-39 11 -55 1 -7 -5 -13 -4 -13 1 0 10 -42 8 -61 -4 -7 -4 -10 -3 -6 2 6 11
-56 10 -74 -1 -7 -5 -10 -4 -6 1 6 11 -56 10 -74 -1 -7 -5 -10 -4 -6 1 6 11
-56 10 -74 -1 -7 -5 -10 -4 -7 1 7 11 -142 11 -160 0 -6 -4 -12 -4 -12 1 0 4
-23 8 -50 8 -28 0 -50 -4 -50 -10 0 -7 -3 -7 -8 0 -9 13 -102 14 -102 1 0 -6
-5 -5 -12 2 -7 7 -17 8 -30 1 -13 -7 -18 -6 -18 2 0 8 -4 8 -15 -1 -8 -7 -15
-8 -15 -4 0 5 -22 9 -50 9 -27 0 -50 -4 -50 -9 0 -5 -6 -5 -12 0 -16 11 -39
11 -55 1 -7 -5 -13 -4 -13 1 0 10 -42 8 -61 -4 -7 -4 -10 -3 -6 2 6 11 -56 10
-74 -1 -7 -5 -10 -4 -6 1 6 11 -56 10 -74 -1 -7 -5 -10 -4 -6 1 6 11 -56 10
-74 -1 -7 -5 -10 -4 -7 1 7 11 -142 11 -160 0 -6 -4 -12 -4 -12 1 0 4 -23 8
-50 8 -28 0 -50 -4 -50 -10 0 -7 -3 -7 -8 0 -9 13 -102 14 -102 1 0 -6 -5 -5
-12 2 -7 7 -17 8 -30 1 -13 -7 -18 -6 -18 2 0 8 -4 8 -15 -1 -8 -7 -15 -8 -15
-4 0 5 -22 9 -50 9 -27 0 -50 -4 -50 -9 0 -5 -6 -5 -12 0 -16 11 -39 11 -55 1
-7 -5 -13 -5 -13 0 0 4 -23 8 -50 8 -28 0 -50 -4 -50 -10 0 -7 -3 -7 -8 0 -9
12 -102 14 -102 2 0 -4 -5 -5 -11 -1 -7 4 -28 8 -48 8 -31 1 -48 14 -130 94
-66 65 -99 91 -110 87 -12 -5 -13 -3 -5 5 9 9 -14 37 -89 111 -55 54 -104 96
-110 92 -6 -3 -7 -1 -4 4 7 12 -87 113 -105 113 -6 0 -9 3 -6 6 6 5 -9 21 -69
76 -10 9 -47 46 -82 82 -35 36 -69 62 -75 59 -6 -3 -8 -3 -4 1 4 5 -4 20 -18
34 -13 15 -24 30 -24 34 0 4 -8 9 -18 12 -11 4 -25 18 -32 31 -7 14 -15 24
-17 22 -1 -2 -60 54 -130 124 -70 70 -131 125 -135 123 -5 -3 -7 -1 -6 4 2 5
-61 73 -138 151 -128 127 -169 163 -148 129 4 -7 3 -8 -4 -4 -6 4 -9 13 -6 20
6 17 -45 59 -63 52 -7 -3 -15 0 -19 6 -5 7 -2 8 6 3 9 -6 11 -4 6 4 -5 7 -14
10 -21 7 -7 -2 -16 -1 -21 4 -11 9 -118 41 -154 45 -14 1 -32 5 -40 8 -18 7
-15 6 -183 11 -76 2 -139 0 -142 -3z m476 -84 c-10 -9 -11 -8 -5 6 3 10 9 15
12 12 3 -3 0 -11 -7 -18z m-556 -56 c3 -5 2 -12 -3 -15 -5 -3 -9 1 -9 9 0 17
3 19 12 6z m525 -71 c0 -5 -5 -10 -11 -10 -5 0 -7 5 -4 10 3 6 8 10 11 10 2 0
4 -4 4 -10z m-764 -266 c1 -9 0 -13 -4 -10 -3 4 -7 14 -8 22 -1 9 0 13 4 10 3
-4 7 -14 8 -22z m-376 12 c0 -3 -4 -8 -10 -11 -5 -3 -10 -1 -10 4 0 6 5 11 10
11 6 0 10 -2 10 -4z m1325 -6 c-3 -5 -12 -10 -18 -10 -7 0 -6 4 3 10 19 12 23
12 15 0z m-1375 -34 c0 -2 -8 -10 -17 -17 -16 -13 -17 -12 -4 4 13 16 21 21
21 13z m1560 -40 c0 -2 -8 -10 -17 -17 -16 -13 -17 -12 -4 4 13 16 21 21 21
13z m-414 -92 c1 -9 0 -13 -4 -10 -3 4 -7 14 -8 22 -1 9 0 13 4 10 3 -4 7 -14
8 -22z m-171 6 c-3 -5 -12 -10 -18 -10 -7 0 -6 4 3 10 19 12 23 12 15 0z
m-305 -76 c0 -8 -19 -13 -24 -6 -3 5 1 9 9 9 8 0 15 -2 15 -3z m34 -110 c3 -8
2 -12 -4 -9 -6 3 -10 10 -10 16 0 14 7 11 14 -7z m-479 -74 c3 -5 1 -10 -4
-10 -6 0 -11 5 -11 10 0 6 2 10 4 10 3 0 8 -4 11 -10z m1046 -17 c13 -16 12
-17 -3 -4 -17 13 -22 21 -14 21 2 0 10 -8 17 -17z m139 -37 c0 -3 -4 -8 -10
-11 -5 -3 -10 -1 -10 4 0 6 5 11 10 11 6 0 10 -2 10 -4z m-780 -110 c0 -2 -8
-10 -17 -17 -16 -13 -17 -12 -4 4 13 16 21 21 21 13z m-406 -82 c3 -8 2 -12
-4 -9 -6 3 -10 10 -10 16 0 14 7 11 14 -7z m1760 -12 c3 -5 -1 -9 -9 -9 -8 0
-12 4 -9 9 3 4 7 8 9 8 2 0 6 -4 9 -8z m-2254 -122 c0 -5 -5 -10 -11 -10 -5 0
-7 5 -4 10 3 6 8 10 11 10 2 0 4 -4 4 -10z m1485 0 c3 -6 -1 -7 -9 -4 -18 7
-21 14 -7 14 6 0 13 -4 16 -10z m339 -78 c3 -5 -1 -9 -9 -9 -8 0 -12 4 -9 9 3
4 7 8 9 8 2 0 6 -4 9 -8z m326 -76 c0 -2 -8 -10 -17 -17 -16 -13 -17 -12 -4 4
13 16 21 21 21 13z m320 0 c0 -2 -8 -10 -17 -17 -16 -13 -17 -12 -4 4 13 16
21 21 21 13z m440 0 c0 -2 -8 -10 -17 -17 -16 -13 -17 -12 -4 4 13 16 21 21
21 13z m-1650 -70 c0 -2 -8 -10 -17 -17 -16 -13 -17 -12 -4 4 13 16 21 21 21
13z m2080 -80 c0 -2 -8 -10 -17 -17 -16 -13 -17 -12 -4 4 13 16 21 21 21 13z
m-3100 -16 c0 -5 -4 -10 -10 -10 -5 0 -10 5 -10 10 0 6 5 10 10 10 6 0 10 -4
10 -10z m3131 -47 c13 -16 12 -17 -3 -4 -17 13 -22 21 -14 21 2 0 10 -8 17
-17z m1524 8 c3 -5 2 -12 -3 -15 -5 -3 -9 1 -9 9 0 17 3 19 12 6z m-3755 -15
c0 -3 -4 -8 -10 -11 -5 -3 -10 -1 -10 4 0 6 5 11 10 11 6 0 10 -2 10 -4z
m-480 -62 c0 -8 -19 -13 -24 -6 -3 5 1 9 9 9 8 0 15 -2 15 -3z m4485 -3 c-9
-8 -36 -10 -30 -2 2 4 11 8 20 8 8 0 13 -3 10 -6z m992 -46 c0 -8 -4 -12 -9
-9 -5 3 -6 10 -3 15 9 13 12 11 12 -6z m-2200 -40 c0 -8 -4 -12 -9 -9 -5 3 -6
10 -3 15 9 13 12 11 12 -6z m-347 -29 c0 -2 -8 -10 -17 -17 -16 -13 -17 -12
-4 4 13 16 21 21 21 13z m2790 -2 c0 -8 -19 -13 -24 -6 -3 5 1 9 9 9 8 0 15
-2 15 -3z m-5695 -84 c-3 -5 -12 -10 -18 -10 -7 0 -6 4 3 10 19 12 23 12 15 0z
m286 -47 c13 -16 12 -17 -3 -4 -17 13 -22 21 -14 21 2 0 10 -8 17 -17z m99 13
c0 -2 -8 -10 -17 -17 -16 -13 -17 -12 -4 4 13 16 21 21 21 13z m4550 -26 c0
-5 -4 -10 -10 -10 -5 0 -10 5 -10 10 0 6 5 10 10 10 6 0 10 -4 10 -10z m-5282
-85 c-3 -3 -9 2 -12 12 -6 14 -5 15 5 6 7 -7 10 -15 7 -18z m4827 -15 c-3 -5
-12 -10 -18 -10 -7 0 -6 4 3 10 19 12 23 12 15 0z m-935 -74 c0 -2 -8 -10 -17
-17 -16 -13 -17 -12 -4 4 13 16 21 21 21 13z m2024 -32 c3 -8 2 -12 -4 -9 -6
3 -10 10 -10 16 0 14 7 11 14 -7z m-1483 -61 c13 -16 12 -17 -3 -4 -10 7 -18
15 -18 17 0 8 8 3 21 -13z m-751 -27 c0 -2 -7 -7 -16 -10 -8 -3 -12 -2 -9 4 6
10 25 14 25 6z m1431 -13 c13 -16 12 -17 -3 -4 -10 7 -18 15 -18 17 0 8 8 3
21 -13z m-1120 -66 c-10 -9 -11 -8 -5 6 3 10 9 15 12 12 3 -3 0 -11 -7 -18z
m963 -73 c3 -8 2 -12 -4 -9 -6 3 -10 10 -10 16 0 14 7 11 14 -7z m964 -359
c-3 -3 -9 2 -12 12 -6 14 -5 15 5 6 7 -7 10 -15 7 -18z m-6343 -95 c3 -5 1
-10 -4 -10 -6 0 -11 5 -11 10 0 6 2 10 4 10 3 0 8 -4 11 -10z m5645 0 c0 -5
-2 -10 -4 -10 -3 0 -8 5 -11 10 -3 6 -1 10 4 10 6 0 11 -4 11 -10z m245 0 c3
-6 -1 -7 -9 -4 -18 7 -21 14 -7 14 6 0 13 -4 16 -10z m1332 -125 c0 -8 -4 -12
-9 -9 -5 3 -6 10 -3 15 9 13 12 11 12 -6z m-6760 -40 c0 -8 -4 -12 -9 -9 -5 3
-6 10 -3 15 9 13 12 11 12 -6z m4594 -28 c-10 -9 -11 -8 -5 6 3 10 9 15 12 12
3 -3 0 -11 -7 -18z m1440 0 c-10 -9 -11 -8 -5 6 3 10 9 15 12 12 3 -3 0 -11
-7 -18z m-637 -5 c3 -5 -1 -9 -9 -9 -8 0 -12 4 -9 9 3 4 7 8 9 8 2 0 6 -4 9
-8z m16 -238 c0 -8 -19 -13 -24 -6 -3 5 1 9 9 9 8 0 15 -2 15 -3z m-5155 -52
c-3 -3 -11 0 -18 7 -9 10 -8 11 6 5 10 -3 15 -9 12 -12z m320 0 c-3 -3 -11 0
-18 7 -9 10 -8 11 6 5 10 -3 15 -9 12 -12z m6050 -152 c-3 -5 -12 -10 -18 -10
-7 0 -6 4 3 10 19 12 23 12 15 0z m-655 -34 c0 -2 -8 -10 -17 -17 -16 -13 -17
-12 -4 4 13 16 21 21 21 13z m-1045 -66 c-3 -5 -12 -10 -18 -10 -7 0 -6 4 3
10 19 12 23 12 15 0z m475 -24 c0 -2 -8 -10 -17 -17 -16 -13 -17 -12 -4 4 13
16 21 21 21 13z m935 -44 c-3 -3 -11 0 -18 7 -9 10 -8 11 6 5 10 -3 15 -9 12
-12z m-5975 -96 c0 -2 -8 -10 -17 -17 -16 -13 -17 -12 -4 4 13 16 21 21 21 13z
m4936 -62 c1 -9 0 -13 -4 -10 -3 4 -7 14 -8 22 -1 9 0 13 4 10 3 -4 7 -14 8
-22z m-4681 6 c3 -5 1 -10 -4 -10 -6 0 -11 5 -11 10 0 6 2 10 4 10 3 0 8 -4
11 -10z m5385 -64 c0 -2 -8 -10 -17 -17 -16 -13 -17 -12 -4 4 13 16 21 21 21
13z m-6065 -104 c-3 -3 -11 0 -18 7 -9 10 -8 11 6 5 10 -3 15 -9 12 -12z
m5810 8 c3 -6 -1 -7 -9 -4 -18 7 -21 14 -7 14 6 0 13 -4 16 -10z m536 -117
c13 -16 12 -17 -3 -4 -10 7 -18 15 -18 17 0 8 8 3 21 -13z m-5191 3 c0 -2 -8
-10 -17 -17 -16 -13 -17 -12 -4 4 13 16 21 21 21 13z m5330 -40 c0 -3 -4 -8
-10 -11 -5 -3 -10 -1 -10 4 0 6 5 11 10 11 6 0 10 -2 10 -4z m-5340 -60 c0 -3
-4 -8 -10 -11 -5 -3 -10 -1 -10 4 0 6 5 11 10 11 6 0 10 -2 10 -4z m-524 -261
c-1 -8 -5 -17 -8 -21 -5 -4 -4 16 1 34 3 9 9 -1 7 -13z m-956 -69 c0 -2 -8
-10 -17 -17 -16 -13 -17 -12 -4 4 13 16 21 21 21 13z m1920 0 c0 -2 -8 -10
-17 -17 -16 -13 -17 -12 -4 4 13 16 21 21 21 13z m-365 -45 c3 -5 2 -12 -3
-15 -5 -3 -9 1 -9 9 0 17 3 19 12 6z m-600 -40 c3 -5 2 -12 -3 -15 -5 -3 -9 1
-9 9 0 17 3 19 12 6z m336 -18 c13 -16 12 -17 -3 -4 -10 7 -18 15 -18 17 0 8
8 3 21 -13z m374 7 c3 -6 -1 -7 -9 -4 -18 7 -21 14 -7 14 6 0 13 -4 16 -10z
m5440 0 c-3 -5 -12 -10 -18 -10 -7 0 -6 4 3 10 19 12 23 12 15 0z m-6741 -38
c3 -5 -1 -9 -9 -9 -8 0 -12 4 -9 9 3 4 7 8 9 8 2 0 6 -4 9 -8z m416 -122 c0
-5 -4 -10 -10 -10 -5 0 -10 5 -10 10 0 6 5 10 10 10 6 0 10 -4 10 -10z m691
-113 c-10 -9 -11 -8 -5 6 3 10 9 15 12 12 3 -3 0 -11 -7 -18z m5006 -52 c0 -8
-4 -12 -9 -9 -5 3 -6 10 -3 15 9 13 12 11 12 -6z m-4523 -21 c3 -8 2 -12 -4
-9 -6 3 -10 10 -10 16 0 14 7 11 14 -7z m-519 -123 c3 -5 2 -12 -3 -15 -5 -3
-9 1 -9 9 0 17 3 19 12 6z m-1478 -16 c0 -8 -4 -12 -9 -9 -5 3 -6 10 -3 15 9
13 12 11 12 -6z m103 11 c0 -3 -4 -8 -10 -11 -5 -3 -10 -1 -10 4 0 6 5 11 10
11 6 0 10 -2 10 -4z m6575 -5 c3 -5 2 -12 -3 -15 -5 -3 -9 1 -9 9 0 17 3 19
12 6z m-6117 -146 c-3 -3 -9 2 -12 12 -6 14 -5 15 5 6 7 -7 10 -15 7 -18z
m758 -10 c-1 -8 -5 -17 -8 -21 -5 -4 -4 16 1 34 3 9 9 -1 7 -13z m998 -31 c3
-8 2 -12 -4 -9 -6 3 -10 10 -10 16 0 14 7 11 14 -7z m4326 -28 c0 -2 -7 -7
-16 -10 -8 -3 -12 -2 -9 4 6 10 25 14 25 6z m-6239 -63 c13 -16 12 -17 -3 -4
-10 7 -18 15 -18 17 0 8 8 3 21 -13z m159 -103 c0 -5 -2 -10 -4 -10 -3 0 -8 5
-11 10 -3 6 -1 10 4 10 6 0 11 -4 11 -10z m6641 -57 c13 -16 12 -17 -3 -4 -10
7 -18 15 -18 17 0 8 8 3 21 -13z m-4925 -49 c1 -9 0 -13 -4 -10 -3 4 -7 14 -8
22 -1 9 0 13 4 10 3 -4 7 -14 8 -22z m-891 6 c-3 -5 -12 -10 -18 -10 -7 0 -6
4 3 10 19 12 23 12 15 0z m1375 -76 c0 -8 -19 -13 -24 -6 -3 5 1 9 9 9 8 0 15
-2 15 -3z m-2129 -131 c13 -16 12 -17 -3 -4 -10 7 -18 15 -18 17 0 8 8 3 21
-13z m1840 0 c13 -16 12 -17 -3 -4 -17 13 -22 21 -14 21 2 0 10 -8 17 -17z
m99 13 c0 -2 -8 -10 -17 -17 -16 -13 -17 -12 -4 4 13 16 21 21 21 13z m3750
-70 c0 -2 -8 -10 -17 -17 -16 -13 -17 -12 -4 4 13 16 21 21 21 13z m-4954 -18
c3 -4 -1 -5 -10 -4 -8 1 -18 5 -22 8 -3 4 1 5 10 4 8 -1 18 -5 22 -8z m-929
-43 c0 -8 -4 -12 -9 -9 -5 3 -6 10 -3 15 9 13 12 11 12 -6z m628 5 c3 -6 -1
-7 -9 -4 -18 7 -21 14 -7 14 6 0 13 -4 16 -10z m1408 -55 c-3 -9 -8 -14 -10
-11 -3 3 -2 9 2 15 9 16 15 13 8 -4z m4487 -5 c0 -5 -2 -10 -4 -10 -3 0 -8 5
-11 10 -3 6 -1 10 4 10 6 0 11 -4 11 -10z m-5230 -14 c0 -2 -8 -10 -17 -17
-16 -13 -17 -12 -4 4 13 16 21 21 21 13z m-599 -99 c-10 -9 -11 -8 -5 6 3 10
9 15 12 12 3 -3 0 -11 -7 -18z m259 19 c0 -2 -8 -10 -17 -17 -16 -13 -17 -12
-4 4 13 16 21 21 21 13z m1291 -83 c13 -16 12 -17 -3 -4 -17 13 -22 21 -14 21
2 0 10 -8 17 -17z m-850 -36 c-10 -9 -11 -8 -5 6 3 10 9 15 12 12 3 -3 0 -11
-7 -18z m1609 19 c0 -3 -4 -8 -10 -11 -5 -3 -10 -1 -10 4 0 6 5 11 10 11 6 0
10 -2 10 -4z m3366 -28 c3 -4 -1 -5 -10 -4 -8 1 -18 5 -22 8 -3 4 1 5 10 4 8
-1 18 -5 22 -8z m-332 -64 c3 -8 2 -12 -4 -9 -6 3 -10 10 -10 16 0 14 7 11 14
-7z m-4424 -128 c0 -2 -8 -10 -17 -17 -16 -13 -17 -12 -4 4 13 16 21 21 21 13z
m1870 -6 c0 -5 -2 -10 -4 -10 -3 0 -8 5 -11 10 -3 6 -1 10 4 10 6 0 11 -4 11
-10z m2671 -87 c13 -16 12 -17 -3 -4 -10 7 -18 15 -18 17 0 8 8 3 21 -13z
m-1551 -17 c0 -2 -8 -10 -17 -17 -16 -13 -17 -12 -4 4 13 16 21 21 21 13z
m1111 -89 c-10 -9 -11 -8 -5 6 3 10 9 15 12 12 3 -3 0 -11 -7 -18z m489 -21
c0 -3 -4 -8 -10 -11 -5 -3 -10 -1 -10 4 0 6 5 11 10 11 6 0 10 -2 10 -4z
m-1415 -106 c-3 -5 -12 -10 -18 -10 -7 0 -6 4 3 10 19 12 23 12 15 0z m-71
-78 c3 -5 -1 -9 -9 -9 -8 0 -12 4 -9 9 3 4 7 8 9 8 2 0 6 -4 9 -8z m646 2 c0
-8 -19 -13 -24 -6 -3 5 1 9 9 9 8 0 15 -2 15 -3z m794 -2 c3 -5 -1 -9 -9 -9
-8 0 -12 4 -9 9 3 4 7 8 9 8 2 0 6 -4 9 -8z m-429 -121 c-9 -8 -36 -10 -30 -2
2 4 11 8 20 8 8 0 13 -3 10 -6z m511 -116 c-1 -8 -5 -17 -8 -21 -5 -4 -4 16 1
34 3 9 9 -1 7 -13z m179 -13 c-3 -3 -11 0 -18 7 -9 10 -8 11 6 5 10 -3 15 -9
12 -12z m-1657 -137 c-3 -3 -9 2 -12 12 -6 14 -5 15 5 6 7 -7 10 -15 7 -18z
m1262 -9 c0 -2 -7 -7 -16 -10 -8 -3 -12 -2 -9 4 6 10 25 14 25 6z m-570 -80
c0 -2 -8 -10 -17 -17 -16 -13 -17 -12 -4 4 13 16 21 21 21 13z m-215 -186 c3
-5 1 -10 -4 -10 -6 0 -11 5 -11 10 0 6 2 10 4 10 3 0 8 -4 11 -10z m1015 -54
c0 -2 -8 -10 -17 -17 -16 -13 -17 -12 -4 4 13 16 21 21 21 13z m-1010 -110 c0
-2 -8 -10 -17 -17 -16 -13 -17 -12 -4 4 13 16 21 21 21 13z m81 -13 c13 -16
12 -17 -3 -4 -17 13 -22 21 -14 21 2 0 10 -8 17 -17z m139 -37 c0 -3 -4 -8
-10 -11 -5 -3 -10 -1 -10 4 0 6 5 11 10 11 6 0 10 -2 10 -4z m-210 -40 c0 -2
-8 -10 -17 -17 -16 -13 -17 -12 -4 4 13 16 21 21 21 13z"/>
</g>
</svg>
